# xmcd CD database file
#
# Track frame offsets:
#	150
#	15045
#	30797
#	46507
#	63050
#	74507
#	93040
#	106452
#	124140
#	139277
#	162430
#	178327
#
# Disc length: 2560 seconds
#
# Revision: 0
# Processed by: cddbd v1.5.1PL0 Copyright (c) Steve Scherf et al.
# Submitted via: CDex 1.51
#
DISCID=8f09fe0c
DTITLE=相田翔子 - パリ・ジュテーム
DYEAR=2003
DGENRE=JPop
TTITLE0=恋は水色
TTITLE1=アネマ・エ・コーレ
TTITLE2=パリ・ジュテーム
TTITLE3=マミー・ブルー
TTITLE4=悲しき雨音
TTITLE5=涙の日曜日
TTITLE6=愛のめざめ
TTITLE7=ヴィーナスたちの風景
TTITLE8=ピノキオ
TTITLE9=Blue Lagoon
TTITLE10=君だけを愛して
TTITLE11=愛の物語
EXTD=YEAR: 2003
EXTT0=
EXTT1=
EXTT2=
EXTT3=
EXTT4=
EXTT5=
EXTT6=
EXTT7=
EXTT8=
EXTT9=
EXTT10=
EXTT11=
PLAYORDER=
